<svg width="126" height="126" viewBox="0 0 126 126" fill="none" xmlns="http://www.w3.org/2000/svg">
<path d="M62.9999 34.2563C51.5811 34.2563 42.1311 43.7063 42.1311 55.1251C42.1311 66.5438 51.5811 75.9938 62.9999 75.9938C74.4186 75.9938 83.8686 66.5438 83.8686 55.1251C83.8686 43.3126 74.4186 34.2563 62.9999 34.2563ZM62.9999 71.6626C53.5499 71.6626 46.0686 64.1813 46.0686 54.7313C46.0686 45.2813 53.5499 37.8001 62.9999 37.8001C72.4499 37.8001 79.9311 45.2813 79.9311 54.7313C79.9311 64.1813 72.4499 71.6626 62.9999 71.6626Z" fill="#767676"/>
<path d="M25.6162 95.4038L25.5989 95.3779L25.5786 95.3543C18.1708 86.777 13.4939 75.4726 13.4939 62.9999C13.4939 35.7135 35.7138 13.4937 63.0001 13.4937C90.2865 13.4937 112.506 35.7135 112.506 62.9999C112.506 75.4786 108.22 86.7719 100.438 95.336L97.6943 98.0799C88.7245 106.658 76.6413 112.112 63.0001 112.112C49.3479 112.112 37.2699 107.044 28.31 98.0839L28.2749 98.0488L28.2337 98.0214C27.1074 97.2705 26.3671 96.5301 25.6162 95.4038ZM30.3858 95.6965L29.9686 96.0568L30.3678 96.437C38.723 104.394 50.263 109.569 63.0001 109.569C75.7373 109.569 87.2773 104.394 95.6325 96.437L96.0317 96.0568L95.6145 95.6965C86.8685 88.1432 75.3358 83.3687 63.0001 83.3687C50.6645 83.3687 39.1318 88.1432 30.3858 95.6965ZM97.3209 93.695L97.701 94.0276L98.0298 93.6441C105.189 85.2917 109.569 74.547 109.569 62.9999C109.569 37.13 88.87 16.4312 63.0001 16.4312C37.1303 16.4312 16.4314 37.13 16.4314 62.9999C16.4314 74.9365 20.8087 85.6867 27.9785 93.6531L28.3154 94.0275L28.6873 93.6879C37.6532 85.5017 50.1335 80.4312 63.0001 80.4312C75.8611 80.4312 87.9529 85.4979 97.3209 93.695Z" fill="#767676" stroke="#767676"/>
</svg>
